<svg id="Layer_1" data-name="Layer 1" xmlns="http://www.w3.org/2000/svg" viewBox="0 0 377.37 116.77"><defs><style>.cls-1{fill:none;stroke:#000;stroke-width:5px;}</style></defs><path d="M534.83,338.16A31.17,31.17,0,0,1,546,339.49a22.19,22.19,0,0,1,8.47,4.86,19.37,19.37,0,0,1,5.07,7.92,24.41,24.41,0,0,1,1,10.51c0,.53-.52,1.08-1.44,1.66a15.83,15.83,0,0,1-3,1.44,11.25,11.25,0,0,1-2.84.68q-1.26.1-1-.54c.24-.81.52-2,.83-3.6a13.37,13.37,0,0,0-.11-5.25,16.24,16.24,0,0,0-2.41-5.76,18.39,18.39,0,0,0-4.32-4.61,18.84,18.84,0,0,0-5.61-2.95,16.38,16.38,0,0,0-6.3-.8,19.08,19.08,0,0,0-7.89,1.77,19.5,19.5,0,0,0-5.51,4,18.32,18.32,0,0,0-3.49,5.15,30.22,30.22,0,0,0-1.87,5.4,26,26,0,0,0-.72,4.57,13.5,13.5,0,0,0,0,2.77,18.46,18.46,0,0,0,3.74,8.5,37.08,37.08,0,0,0,6.77,6.51c2.59,1.95,5.31,3.79,8.17,5.55a72.6,72.6,0,0,1,8,5.68,34.77,34.77,0,0,1,6.41,6.84,18.46,18.46,0,0,1,3.16,9,19.39,19.39,0,0,1-1,9.11,15.35,15.35,0,0,1-4.29,6.05,17.84,17.84,0,0,1-6.33,3.42,26.57,26.57,0,0,1-7.17,1.15,22.52,22.52,0,0,1-8.17-1.08,26,26,0,0,1-5.58-2.67,17.56,17.56,0,0,1-4.25-3.88l1.3-4.61a28.59,28.59,0,0,0,5.25,4.39,30.49,30.49,0,0,0,5.58,2.92,15,15,0,0,0,6.59,1,18.34,18.34,0,0,0,3.32-.65,11,11,0,0,0,4.13-2.19,12.06,12.06,0,0,0,3.28-4.5,15,15,0,0,0,.79-7.64,11.12,11.12,0,0,0-3.24-6.44,51.48,51.48,0,0,0-7-6.08q-4.11-3-8.82-6.23a88,88,0,0,1-8.79-6.81,38.93,38.93,0,0,1-6.84-7.84,19,19,0,0,1-3.05-9.44,29.21,29.21,0,0,1,.89-9.61,23.77,23.77,0,0,1,4.54-9,25.87,25.87,0,0,1,8.78-6.88A33.74,33.74,0,0,1,534.83,338.16Z" transform="translate(-494.32 -325.61)"/><path d="M563.41,353.06c0,2.07-.12,4.55-.21,7.45s-.19,6.05-.29,9.44-.19,6.91-.29,10.58-.19,7.31-.29,10.91a28.25,28.25,0,0,1,1.7-3.39,15.34,15.34,0,0,1,2.23-2.95,9.71,9.71,0,0,1,2.88-2.05,8.54,8.54,0,0,1,3.63-.76A5.82,5.82,0,0,1,577,384a10.39,10.39,0,0,1,2.34,4.21,23.74,23.74,0,0,1,.93,5.87q.15,3.27,0,6.69c-.09,2.28-.25,4.53-.47,6.73s-.37,4.18-.46,5.91a29.78,29.78,0,0,0,0,4.25c.09,1.1.4,1.68.93,1.72a3.24,3.24,0,0,0,2.74-1,11.32,11.32,0,0,0,2.3-3.09,39.67,39.67,0,0,0,1.87-4.14c.58-1.49,1.07-2.9,1.48-4.22s.73-2.41,1-3.27.43-1.3.58-1.3.51,0,1.11.11.9.23.9.47a16.39,16.39,0,0,1-.39,3,30.76,30.76,0,0,1-1.23,4.25,42.26,42.26,0,0,1-2,4.68,20.49,20.49,0,0,1-2.81,4.25,13.66,13.66,0,0,1-3.6,3,6.92,6.92,0,0,1-4.36.82,3.93,3.93,0,0,1-3.13-1.94,11.52,11.52,0,0,1-1.4-4.39,38.7,38.7,0,0,1-.29-6c0-2.24.14-4.48.29-6.74s.24-4.45.29-6.58a31.87,31.87,0,0,0-.33-5.62A8,8,0,0,0,571.8,388a3.22,3.22,0,0,0-3.2-1.05,3.78,3.78,0,0,0-2.52,1.84,17,17,0,0,0-1.84,3.78A45.08,45.08,0,0,0,563,397c-.36,1.54-.64,2.83-.83,3.89q-.07,3.81-.11,7.2t0,6.16c0,1.84,0,3.42.07,4.71s.13,2.26.22,2.88c0,.29-.3.51-1,.65a9.7,9.7,0,0,1-2.51.11,5.68,5.68,0,0,1-2.48-.76,1.85,1.85,0,0,1-.94-1.94c0-.15.05-1.39.14-3.75s.19-5.37.29-9.07h-.07c.09-2.78.19-6,.29-9.61s.19-7.37.29-11.23.19-7.71.29-11.52.16-7.33.18-10.55,0-6,0-8.28-.12-3.89-.22-4.75c-.05-.29.29-.51,1-.65a9.16,9.16,0,0,1,2.44-.11,5.76,5.76,0,0,1,2.46.76A2,2,0,0,1,563.41,353.06Z" transform="translate(-494.32 -325.61)"/><path d="M608,382.94a6.09,6.09,0,0,1,1.44,0,8.81,8.81,0,0,1,2,.47,4.44,4.44,0,0,1,1.73,1.11,2.43,2.43,0,0,1,.57,2.05q-.07.3-.21,2.7t-.33,5.91q-.18,3.5-.32,7.45t-.22,7.31q-.07,3.34,0,5.61c.05,1.52.17,2.27.36,2.27q.79.08,1.62-1.08a17.81,17.81,0,0,0,1.62-2.88c.53-1.15,1-2.4,1.51-3.74s.9-2.59,1.26-3.75.65-2.11.87-2.88a4.59,4.59,0,0,1,.39-1.15l.4,0,.68.07a2.49,2.49,0,0,1,.65.14c.19.08.29.18.29.33a16.52,16.52,0,0,1-.4,1.65c-.26,1-.62,2.25-1.08,3.71s-1,3.05-1.72,4.75a32.94,32.94,0,0,1-2.34,4.68,15.46,15.46,0,0,1-2.88,3.53,4.62,4.62,0,0,1-3.32,1.33,3,3,0,0,1-1.58-.39,4.22,4.22,0,0,1-1.15-1.05,5,5,0,0,1-.79-1.44c-.2-.52-.36-1.05-.51-1.58a8.86,8.86,0,0,1-2.23,2.66,9.15,9.15,0,0,1-2.41,1.37,6.93,6.93,0,0,1-2.13.47,7.47,7.47,0,0,1-1.36,0,9.88,9.88,0,0,1-2.67-.68,8.05,8.05,0,0,1-3.24-2.52,16.28,16.28,0,0,1-2.7-5.58,34.14,34.14,0,0,1-1-9.94,41.07,41.07,0,0,1,1-9.1,25,25,0,0,1,2.2-6.09,12.71,12.71,0,0,1,2.88-3.71,11,11,0,0,1,3.06-1.9,9.56,9.56,0,0,1,2.59-.69c.74-.07,1.28-.11,1.62-.11a3.86,3.86,0,0,1,1.91.47,7.27,7.27,0,0,1,1.51,1.15,7.66,7.66,0,0,1,1.15,1.48,12.56,12.56,0,0,1,.76,1.51c.09-1.2.19-2.15.28-2.84S607.88,383,608,382.94Zm-7.34,36.22a3.76,3.76,0,0,0,2.3-.69,6,6,0,0,0,1.55-1.65,10.9,10.9,0,0,0,1-2.09c.26-.74.49-1.45.68-2.12,0-1.25,0-2.73.11-4.43s.14-3.51.22-5.4.16-3.81.28-5.73.23-3.74.33-5.47c-.1.1-.15-.05-.15-.43a4.62,4.62,0,0,0-.32-2,7.67,7.67,0,0,0-1-1.91,7.55,7.55,0,0,0-1.44-1.44,2.64,2.64,0,0,0-1.52-.57,3.3,3.3,0,0,0-2.41,1,9.56,9.56,0,0,0-1.83,2.74,21.55,21.55,0,0,0-1.34,3.74c-.36,1.37-.64,2.72-.86,4.07s-.39,2.59-.5,3.74-.21,2.07-.26,2.74a33.07,33.07,0,0,0,0,4.1,35.81,35.81,0,0,0,.61,5.33,14.62,14.62,0,0,0,1.58,4.57A3.19,3.19,0,0,0,600.64,419.16Z" transform="translate(-494.32 -325.61)"/><path d="M627.28,353.06q-.07,3.1-.22,7.45c-.1,2.91-.19,6.05-.29,9.44s-.19,6.91-.29,10.58-.19,7.31-.28,10.91a28.17,28.17,0,0,1,1.69-3.39,15.76,15.76,0,0,1,2.23-2.95,9.71,9.71,0,0,1,2.88-2.05,8.56,8.56,0,0,1,3.64-.76,5.8,5.8,0,0,1,4.21,1.7,10.39,10.39,0,0,1,2.34,4.21,23.28,23.28,0,0,1,.93,5.87q.15,3.27,0,6.69c-.09,2.28-.25,4.53-.46,6.73s-.38,4.18-.47,5.91a29.78,29.78,0,0,0,0,4.25c.09,1.1.41,1.68.93,1.72a3.23,3.23,0,0,0,2.74-1,11.32,11.32,0,0,0,2.3-3.09,39.67,39.67,0,0,0,1.88-4.14c.57-1.49,1.06-2.9,1.47-4.22s.73-2.41,1-3.27.44-1.3.58-1.3.52,0,1.12.11.9.23.9.47a16.58,16.58,0,0,1-.4,3,30.62,30.62,0,0,1-1.22,4.25,44.36,44.36,0,0,1-2,4.68,20.49,20.49,0,0,1-2.81,4.25,13.66,13.66,0,0,1-3.6,3,6.9,6.9,0,0,1-4.35.82,3.93,3.93,0,0,1-3.14-1.94,11.52,11.52,0,0,1-1.4-4.39,38.7,38.7,0,0,1-.29-6c0-2.24.15-4.48.29-6.74s.24-4.45.29-6.58a30.07,30.07,0,0,0-.33-5.62,8,8,0,0,0-1.44-3.74,3.22,3.22,0,0,0-3.2-1.05,3.78,3.78,0,0,0-2.52,1.84,17,17,0,0,0-1.84,3.78,45.08,45.08,0,0,0-1.29,4.46c-.36,1.54-.64,2.83-.83,3.89-.05,2.54-.08,4.94-.11,7.2s0,4.31,0,6.16,0,3.42.07,4.71.12,2.26.21,2.88c0,.29-.3.51-1,.65a9.7,9.7,0,0,1-2.51.11,5.6,5.6,0,0,1-2.47-.76,1.84,1.84,0,0,1-1-1.94c0-.15.05-1.39.14-3.75s.2-5.37.29-9.07h-.07c.1-2.78.19-6,.29-9.61s.2-7.37.29-11.23.2-7.71.29-11.52.16-7.33.19-10.55,0-6,0-8.28-.12-3.89-.22-4.75c0-.29.29-.51,1-.65a9.16,9.16,0,0,1,2.44-.11,5.81,5.81,0,0,1,2.47.76A2,2,0,0,1,627.28,353.06Z" transform="translate(-494.32 -325.61)"/><path d="M663.72,382.29a5.71,5.71,0,0,1,4.71,1.44,11.79,11.79,0,0,1,2.88,4.4,21.87,21.87,0,0,1,1.37,5.76,29.76,29.76,0,0,1,.11,5.61,24.63,24.63,0,0,1-2,8.5,14.91,14.91,0,0,1-3.46,4.71,9.1,9.1,0,0,1-3.85,2.06,15.71,15.71,0,0,1-3.1.43,7.22,7.22,0,0,0,2.38,3.63,3.09,3.09,0,0,0,2,.76,7.21,7.21,0,0,0,3.46-1.19,11.68,11.68,0,0,0,2.84-2.66,21.36,21.36,0,0,0,2.24-3.57c.64-1.29,1.21-2.56,1.69-3.81a28.24,28.24,0,0,0,1.11-3.49c.27-1.08.47-1.94.62-2.56.09-.24.45-.35,1.08-.32s1,.27,1.08.75a16.08,16.08,0,0,1-.36,1.77,33.88,33.88,0,0,1-1.16,3.74,46.06,46.06,0,0,1-2,4.68,25.5,25.5,0,0,1-2.92,4.61,17.47,17.47,0,0,1-3.89,3.6,9.52,9.52,0,0,1-4.85,1.62,7.35,7.35,0,0,1-4.11-.83,9.09,9.09,0,0,1-2.88-2.52,14.64,14.64,0,0,1-1.91-3.46,21.18,21.18,0,0,1-1.12-3.67c-.24-1.17-.41-2.21-.51-3.09s-.14-1.5-.14-1.84c0-.67,0-1.73.07-3.17s.18-3.06.4-4.86a49,49,0,0,1,1-5.61,24.44,24.44,0,0,1,1.91-5.4,14,14,0,0,1,3-4.14A7,7,0,0,1,663.72,382.29Zm-4.48,24.77a28.54,28.54,0,0,0,.08,3.53,19.89,19.89,0,0,0,.43,2.81,7.94,7.94,0,0,0,2.22-.22,5.35,5.35,0,0,0,2.64-1.62,11.42,11.42,0,0,0,2.33-4.07,27.52,27.52,0,0,0,1.3-7.63q.36-7.85-.8-11.48c-.77-2.43-1.93-3.49-3.48-3.21-.48.1-.92.56-1.31,1.37a21.45,21.45,0,0,0-1.12,3.13,39.9,39.9,0,0,0-.94,4.25c-.27,1.56-.5,3.15-.69,4.75s-.35,3.15-.48,4.61S659.24,406,659.24,407.06Z" transform="translate(-494.32 -325.61)"/><path d="M700.28,366a3.62,3.62,0,0,0,.72-.4l1.55-.9c.6-.33,1.23-.66,1.87-1a10.34,10.34,0,0,1,1.77-.68,1.56,1.56,0,0,1,1.26.07c.31.19.42.6.32,1.22l-1.15,26.86a37.61,37.61,0,0,0,5.62-4c.24-.14.5.16.79.9a12.18,12.18,0,0,1,.65,2.66,14.33,14.33,0,0,1,.1,3.06,2.22,2.22,0,0,1-.9,1.95,34.54,34.54,0,0,1-3.34,1.73q-1.62.72-3.21,1.29l-.93,22c0,.34-.23.55-.69.65a4.23,4.23,0,0,1-1.47,0,5.63,5.63,0,0,1-1.44-.4c-.44-.19-.65-.43-.65-.72,0-1.82-.07-3.82-.07-6q-.08-2.73-.08-6.44c0-2.47,0-5.08-.07-7.81a20.6,20.6,0,0,1-9.72-1,21.88,21.88,0,0,1-7.59-4.65,25.42,25.42,0,0,1-7.67-14.9,29,29,0,0,1,0-6.95,40.29,40.29,0,0,1,1.77-8.32,41.8,41.8,0,0,1,3.85-8.56,31.34,31.34,0,0,1,6.33-7.67,32.73,32.73,0,0,1,9.15-5.65,36.38,36.38,0,0,1,12.35-2.6,39.09,39.09,0,0,1,14.9,1.84,31.7,31.7,0,0,1,11,6.44,32.35,32.35,0,0,1,7.35,9.94,45.43,45.43,0,0,1,3.85,12.28,55.65,55.65,0,0,1,.54,13.46,63.51,63.51,0,0,1-2.56,13.57A57,57,0,0,1,739,409.87a45.24,45.24,0,0,1-8.28,10.33,38.55,38.55,0,0,1-10.83,7.06,32.92,32.92,0,0,1-13.25,2.63,35.08,35.08,0,0,1-6.3-.51,26.43,26.43,0,0,1-4.9-1.33,17.51,17.51,0,0,1-3.67-1.91,19.61,19.61,0,0,1-2.63-2.16,13.14,13.14,0,0,1-3.38-5.9,19.17,19.17,0,0,1,2-2,7.62,7.62,0,0,1,1.51-1.11q.72-.4.93.18a7.57,7.57,0,0,1,.33,1.36,12,12,0,0,0,.68,2.27,14.14,14.14,0,0,0,1.44,2.63,10.59,10.59,0,0,0,2.49,2.52,12.29,12.29,0,0,0,3.81,1.84,18,18,0,0,0,5.51.61,30.23,30.23,0,0,0,12.1-2.63,32.9,32.9,0,0,0,9.54-6.62,38.3,38.3,0,0,0,6.94-9.58,53.64,53.64,0,0,0,4.36-11.48,57.57,57.57,0,0,0,1.76-12.35,58.88,58.88,0,0,0-.82-12.24,45.91,45.91,0,0,0-3.42-11.13,32.16,32.16,0,0,0-6-9,24.21,24.21,0,0,0-8.6-5.76,25.29,25.29,0,0,0-11.23-1.55A30.85,30.85,0,0,0,682.75,363a28.35,28.35,0,0,0-2.19,11.49,22.78,22.78,0,0,0,1.58,8,19.9,19.9,0,0,0,4.18,6.66,16,16,0,0,0,6.37,4.07,14.58,14.58,0,0,0,8.17.28q-.08-5.1-.14-10t-.15-8.82c-.05-2.59-.09-4.68-.14-6.26A14.26,14.26,0,0,0,700.28,366Z" transform="translate(-494.32 -325.61)"/><path d="M760.84,382.29a5.73,5.73,0,0,1,4.72,1.44,12,12,0,0,1,2.88,4.4,21.87,21.87,0,0,1,1.37,5.76,30.63,30.63,0,0,1,.11,5.61,24.39,24.39,0,0,1-2.06,8.5,14.75,14.75,0,0,1-3.45,4.71,9.1,9.1,0,0,1-3.85,2.06,15.71,15.71,0,0,1-3.1.43,7.16,7.16,0,0,0,2.38,3.63,3.09,3.09,0,0,0,2,.76,7.21,7.21,0,0,0,3.46-1.19,11.86,11.86,0,0,0,2.84-2.66,20.69,20.69,0,0,0,2.23-3.57c.65-1.29,1.22-2.56,1.7-3.81a28.24,28.24,0,0,0,1.11-3.49c.27-1.08.47-1.94.61-2.56.1-.24.46-.35,1.08-.32s1,.27,1.08.75a16.08,16.08,0,0,1-.36,1.77,33.56,33.56,0,0,1-1.15,3.74,48.43,48.43,0,0,1-2,4.68,25.5,25.5,0,0,1-2.92,4.61,17.47,17.47,0,0,1-3.89,3.6,9.52,9.52,0,0,1-4.86,1.62,7.33,7.33,0,0,1-4.1-.83,9.13,9.13,0,0,1-2.89-2.52,15,15,0,0,1-1.91-3.46,23.08,23.08,0,0,1-1.12-3.67c-.24-1.17-.4-2.21-.5-3.09s-.14-1.5-.14-1.84c0-.67,0-1.73.07-3.17s.18-3.06.39-4.86a53.74,53.74,0,0,1,1-5.61,25.5,25.5,0,0,1,1.91-5.4,14.15,14.15,0,0,1,3-4.14A7,7,0,0,1,760.84,382.29Zm-4.47,24.77a28.66,28.66,0,0,0,.07,3.53,21.34,21.34,0,0,0,.44,2.81,7.84,7.84,0,0,0,2.21-.22,5.33,5.33,0,0,0,2.65-1.62,11.42,11.42,0,0,0,2.32-4.07,27.11,27.11,0,0,0,1.31-7.63q.36-7.85-.8-11.48c-.77-2.43-1.93-3.49-3.48-3.21-.49.1-.92.56-1.31,1.37a21.45,21.45,0,0,0-1.12,3.13,39.8,39.8,0,0,0-.95,4.25c-.26,1.56-.49,3.15-.69,4.75s-.35,3.15-.47,4.61S756.37,406,756.37,407.06Z" transform="translate(-494.32 -325.61)"/><path d="M772.57,382.29c-.05-.33.29-.51,1-.54a7.51,7.51,0,0,1,2.45.4,9.85,9.85,0,0,1,2.62,1.3,3.48,3.48,0,0,1,1.55,2,20.4,20.4,0,0,1,.07,2.23v9.83q0,3.06.08,6.16t.32,6.05c.17,2,.38,3.7.65,5.22a12.66,12.66,0,0,0,1.08,3.6c.45.88,1,1.33,1.62,1.33a2.8,2.8,0,0,0,2.23-1.51,17.93,17.93,0,0,0,1.84-3.89,44.1,44.1,0,0,0,1.44-5.29q.6-2.93,1-5.8a5.87,5.87,0,0,1-2.92-2.66,16.66,16.66,0,0,1-1.8-4.61,24.19,24.19,0,0,1-.61-5.47,22.53,22.53,0,0,1,.58-5.3,10.27,10.27,0,0,1,1.8-4,4,4,0,0,1,3.09-1.66,3.59,3.59,0,0,1,2.45.76,4.78,4.78,0,0,1,1.51,3c.05.33.1,1,.15,2.08s0,2.38,0,4-.12,3.36-.22,5.33-.26,4-.5,6.05a6.59,6.59,0,0,0,4.1-1.58,18.11,18.11,0,0,0,3.1-3.35,23.08,23.08,0,0,0,2.05-3.46,13.11,13.11,0,0,1,1-2c.44-.53.82-.62,1.16-.29a2.7,2.7,0,0,1,.5,1.88,8.28,8.28,0,0,1-.86,2.55,19,19,0,0,1-2.45,3.89,18.73,18.73,0,0,1-3.89,3.6,9.23,9.23,0,0,1-5.18,1.69q-.58,3.53-1.41,6.84a32.5,32.5,0,0,1-2,5.94,14.64,14.64,0,0,1-2.92,4.29,5.6,5.6,0,0,1-3.85,1.72,6.22,6.22,0,0,1-5.33-2,14.75,14.75,0,0,1-3.06-5.91,42.71,42.71,0,0,1-1.4-8.28q-.36-4.61-.43-9.14c-.05-3-.1-5.87-.15-8.53A41.91,41.91,0,0,0,772.57,382.29Zm18.07.29c-.48.1-.89.52-1.22,1.26a11.45,11.45,0,0,0-.79,2.81,21.32,21.32,0,0,0-.29,3.71,25.21,25.21,0,0,0,.29,3.92,17.51,17.51,0,0,0,.86,3.46,5.52,5.52,0,0,0,1.51,2.34q.43-3.24.61-5.55c.12-1.53.18-2.42.18-2.66s.05-1.1.15-2.16.14-2.12.14-3.2a12.14,12.14,0,0,0-.29-2.85C791.6,382.85,791.22,382.49,790.64,382.58Z" transform="translate(-494.32 -325.61)"/><path d="M812.24,384.09a5.15,5.15,0,0,0,1.59-.5,17.36,17.36,0,0,1,1.94-.76,5.51,5.51,0,0,1,2.05-.25,2.63,2.63,0,0,1,1.84,1,6.06,6.06,0,0,1,.72,1.15,8.07,8.07,0,0,1,.57,1.48,4.07,4.07,0,0,1,.18,1.44,1.39,1.39,0,0,1-.46,1,4.92,4.92,0,0,0-.9,2.2,18.1,18.1,0,0,0-.51,4.21,17.68,17.68,0,0,0,.65,4.9,8.78,8.78,0,0,0,2.56,4.24.85.85,0,0,1,.07,1,3.41,3.41,0,0,1-1,1.23,6.94,6.94,0,0,1-1.8,1,4.36,4.36,0,0,1-2.23.29,4.55,4.55,0,0,1-2.27-1,7.09,7.09,0,0,1-2-2.73,10.44,10.44,0,0,1-.83-4.54,51.23,51.23,0,0,1,.33-5.18c.19-1.68.4-3.13.64-4.36s.29-1.88.15-2-.48.12-.87.79a29.57,29.57,0,0,0-1.36,2.85q-.79,1.83-1.62,4.32c-.56,1.65-1.07,3.37-1.55,5.15s-.91,3.57-1.3,5.4a44.72,44.72,0,0,0-.79,5c0,2.16,0,4.1.11,5.83a41.18,41.18,0,0,0,.39,4.46c.05.29-.3.51-1,.65a9.47,9.47,0,0,1-2.48.11,5.51,5.51,0,0,1-2.45-.76,1.86,1.86,0,0,1-.94-1.94c0-.15.05-1.39.15-3.75s.19-5.37.28-9.07H800c.15-4.17.24-7.52.29-10s.05-4.57,0-6.16-.12-2.9-.22-4-.24-2.23-.43-3.53c0-.28.29-.5,1-.64a8.55,8.55,0,0,1,2.41-.11,5.71,5.71,0,0,1,2.45.75,2,2,0,0,1,1,1.95c-.09,2.3-.17,4.51-.21,6.62s-.1,4.18-.15,6.19c.48-1.72,1-3.42,1.62-5.07s1.18-3.15,1.73-4.47a26.94,26.94,0,0,1,1.55-3.2C811.57,384.57,812,384.14,812.24,384.09Z" transform="translate(-494.32 -325.61)"/><path class="cls-1" d="M862.39,393.26a12.11,12.11,0,0,0-2.17-.58c.06-1,.11-1.94.16-2.77,0-.65.07-1.15.1-1.52l.08-.68a12.35,12.35,0,0,0-3.28-10,14.22,14.22,0,0,0-5.61-3.63,18.18,18.18,0,0,0-4.31-1,17.5,17.5,0,0,0-2.06-.13,13.06,13.06,0,0,0-1.8.12,14,14,0,0,0-4.55-.74c-.68,0-1.48,0-2.58.16a19.47,19.47,0,0,0-5.27,1.32,20.42,20.42,0,0,0-4.56,2.56,12.54,12.54,0,0,0-8-3.73c-.35,0-.7,0-1.06,0a15.42,15.42,0,0,0-4.72.74,27,27,0,0,0-2.73,1l-.1,0a15.7,15.7,0,0,0-6-1.72c-.56,0-1.12-.07-1.67-.07a18.92,18.92,0,0,0-2.63.21l-.33-.27a13.52,13.52,0,0,0-8.31-2.82h-.66a13.81,13.81,0,0,0-9,3.78,20.71,20.71,0,0,0-2.26-.88,17.76,17.76,0,0,0-5.29-.86h-.51a11.42,11.42,0,0,0-5.65,1.61,16.06,16.06,0,0,0-6-1.12,16.61,16.61,0,0,0-1.71.09,18.56,18.56,0,0,0-3,.52c-.14-1.41-.32-2.81-.55-4.19a55.52,55.52,0,0,0-4.7-15,42.31,42.31,0,0,0-9.62-13,41.58,41.58,0,0,0-14.49-8.5A46.94,46.94,0,0,0,712,329.74c-1,0-2.09,0-3.16.09a46.7,46.7,0,0,0-15.72,3.36,43.09,43.09,0,0,0-11.9,7.39,41.66,41.66,0,0,0-8.32,10.1,52.28,52.28,0,0,0-4.76,10.59A51,51,0,0,0,666,371.63c0,.23,0,.45-.05.68-.46,0-.92-.06-1.39-.06a16.47,16.47,0,0,0-1.71.09,17.05,17.05,0,0,0-10.3,4.53,22.83,22.83,0,0,0-2.44,2.74,19,19,0,0,0-2-2.53,15.67,15.67,0,0,0-11.17-4.78h-.2l.06-2.06c.09-3.37.19-6.49.29-9.39s.16-5.37.21-7.44a11.89,11.89,0,0,0-6-10.94,15.78,15.78,0,0,0-6.67-2.07c-.58,0-1.13-.06-1.67-.06a18.25,18.25,0,0,0-3.51.33c-6.65,1.32-9.54,6.82-9,11.57h0c0,.14.1,1,.16,3.85.05,2.19.06,4.88,0,8,0,2.73-.07,5.75-.15,9a18.21,18.21,0,0,0-2-.12,12.81,12.81,0,0,0-1.79.12,14,14,0,0,0-4.55-.74,25.85,25.85,0,0,0-2.58.16,19.38,19.38,0,0,0-5.27,1.32,20.79,20.79,0,0,0-5.86,3.57,19.24,19.24,0,0,0-2.2,2.22,17.68,17.68,0,0,0-2-2.48,15.63,15.63,0,0,0-11.16-4.78h-.2l.06-2.06c.09-3.37.19-6.49.28-9.39s.17-5.37.22-7.44a11.9,11.9,0,0,0-6-10.94,14.57,14.57,0,0,0-2.34-1.08,28.7,28.7,0,0,0-3.77-4.33A32.06,32.06,0,0,0,549,330a40,40,0,0,0-12.38-1.87c-.75,0-1.51,0-2.26.06a43.59,43.59,0,0,0-17.77,4.19,35.79,35.79,0,0,0-12.1,9.57,33.52,33.52,0,0,0-6.41,12.8,39.5,39.5,0,0,0-1.19,12.75,28.74,28.74,0,0,0,4.66,14.23,48.91,48.91,0,0,0,8.59,9.87,97.5,97.5,0,0,0,9.79,7.59c3,2.06,5.89,4.08,8.51,6a42,42,0,0,1,5.63,4.88,3.78,3.78,0,0,1,.59.77,8,8,0,0,1,0,2.43,3.62,3.62,0,0,1-.45.79,4.21,4.21,0,0,1-.38.27c-.89.23-1.32.31-1.46.33h-.28a4.88,4.88,0,0,1-1.86-.35,20,20,0,0,1-3.7-1.92l-.16-.11a18.62,18.62,0,0,1-3.42-2.86l-12.12-12.86L503.4,423l3.05,4a27.57,27.57,0,0,0,6.64,6.13,35.2,35.2,0,0,0,7.75,3.75,31.24,31.24,0,0,0,10.56,1.68c.4,0,.82,0,1.23,0a36.81,36.81,0,0,0,9.82-1.57,27.91,27.91,0,0,0,9.88-5.35l.38-.35a15.79,15.79,0,0,0,5.21,1.31c.57,0,1.13.06,1.67.06a18.23,18.23,0,0,0,3.5-.32,11.72,11.72,0,0,0,5.77-2.79,13.91,13.91,0,0,0,7.83,3.41,18.4,18.4,0,0,0,2.08.12,16.76,16.76,0,0,0,8.31-2.17,21.54,21.54,0,0,0,1.92-1.23,16.33,16.33,0,0,0,3.27,1.68,20.23,20.23,0,0,0,5,1.24,14.45,14.45,0,0,0,1.91.11c.3,0,.62,0,1,0a16.91,16.91,0,0,0,5.15-1.06l0,0a13,13,0,0,0,5,1.05h.38a13.9,13.9,0,0,0,5.94-1.34,15.61,15.61,0,0,0,5.1,1.27c.57,0,1.13.06,1.67.06a18.15,18.15,0,0,0,3.5-.32,11.72,11.72,0,0,0,5.77-2.79,13.94,13.94,0,0,0,7.84,3.41,18.09,18.09,0,0,0,2.07.12,16.76,16.76,0,0,0,8.31-2.17,23.47,23.47,0,0,0,2-1.29,17.47,17.47,0,0,0,1.7,1.08,16.94,16.94,0,0,0,8.4,2.13c.4,0,.8,0,1.14,0a19.3,19.3,0,0,0,9.9-3.3,27.31,27.31,0,0,0,4.15-3.46,23.59,23.59,0,0,0,3.73,5l.09.11a29.74,29.74,0,0,0,4,3.28,27.46,27.46,0,0,0,5.76,3,37.26,37.26,0,0,0,6.74,1.85,45.71,45.71,0,0,0,8.09.67,43,43,0,0,0,17.23-3.46,48.41,48.41,0,0,0,13.64-8.89,53.31,53.31,0,0,0,5.79-6.29,24.05,24.05,0,0,0,2.48,4.13,19.16,19.16,0,0,0,6,5.27,16.94,16.94,0,0,0,8.4,2.13c.39,0,.8,0,1.14,0a19.36,19.36,0,0,0,9.9-3.3c.33-.22.65-.47,1-.71a16.22,16.22,0,0,0,10.69,3.9l1.07,0a15.45,15.45,0,0,0,9.44-3.75,12.12,12.12,0,0,0,2,1.55,15.62,15.62,0,0,0,6.81,2.15c.57,0,1.13.06,1.67.06a19.06,19.06,0,0,0,3.5-.32c6.92-1.34,9.81-7.23,9-12a25.26,25.26,0,0,1-.25-2.6h.06c.4.05.8.08,1.2.1a24.49,24.49,0,0,0,4.23,8,17.83,17.83,0,0,0,7.46,5.52,20.19,20.19,0,0,0,5,1.24,14.25,14.25,0,0,0,1.91.11c.29,0,.61,0,.95,0a17,17,0,0,0,5.16-1.06l0,0a13,13,0,0,0,5,1.05h.38a14.6,14.6,0,0,0,9.78-3.86,25.48,25.48,0,0,0,4.78-5.8,43.54,43.54,0,0,0,3.06-6.11c.8-2,1.48-3.83,2-5.56s.9-3,1.2-4.15a15.29,15.29,0,0,0,.72-4.18A10.33,10.33,0,0,0,862.39,393.26Z" transform="translate(-494.32 -325.61)"/><path d="M844.86,382.94a6.1,6.1,0,0,1,1.44,0,8.61,8.61,0,0,1,2,.47,4.44,4.44,0,0,1,1.73,1.11,2.46,2.46,0,0,1,.58,2.05c0,.2-.12,1.1-.22,2.7s-.2,3.58-.32,5.91-.23,4.81-.33,7.45-.17,5.08-.21,7.31,0,4.1,0,5.61.16,2.27.36,2.27q.78.08,1.62-1.08a17.81,17.81,0,0,0,1.62-2.88c.52-1.15,1-2.4,1.51-3.74s.9-2.59,1.26-3.75.65-2.11.86-2.88a4.31,4.31,0,0,1,.4-1.15l.39,0,.69.07a2.58,2.58,0,0,1,.65.14c.19.08.28.18.28.33s-.13.65-.39,1.65-.63,2.25-1.08,3.71-1,3.05-1.73,4.75a32.94,32.94,0,0,1-2.34,4.68,15,15,0,0,1-2.88,3.53,4.62,4.62,0,0,1-3.31,1.33,3,3,0,0,1-1.59-.39,4.37,4.37,0,0,1-1.15-1.05,5.3,5.3,0,0,1-.79-1.44c-.19-.52-.36-1.05-.5-1.58a8.88,8.88,0,0,1-4.65,4,6.93,6.93,0,0,1-2.12.47,7.59,7.59,0,0,1-1.37,0,9.83,9.83,0,0,1-2.66-.68,7.92,7.92,0,0,1-3.24-2.52,15.93,15.93,0,0,1-2.7-5.58,33.75,33.75,0,0,1-1-9.94,41.68,41.68,0,0,1,1-9.1,25.47,25.47,0,0,1,2.2-6.09,12.71,12.71,0,0,1,2.88-3.71,11.32,11.32,0,0,1,3.06-1.9,9.65,9.65,0,0,1,2.59-.69c.75-.07,1.29-.11,1.62-.11a3.83,3.83,0,0,1,1.91.47,7,7,0,0,1,1.51,1.15,7.28,7.28,0,0,1,1.15,1.48,10.17,10.17,0,0,1,.76,1.51c.1-1.2.19-2.15.29-2.84S844.76,383,844.86,382.94Zm-7.35,36.22a3.81,3.81,0,0,0,2.31-.69,5.77,5.77,0,0,0,1.54-1.65,10.34,10.34,0,0,0,1-2.09c.27-.74.49-1.45.69-2.12,0-1.25,0-2.73.1-4.43s.15-3.51.22-5.4.17-3.81.29-5.73.23-3.74.32-5.47c-.09.1-.14-.05-.14-.43a4.49,4.49,0,0,0-.33-2,7.67,7.67,0,0,0-1-1.91,7,7,0,0,0-1.44-1.44,2.62,2.62,0,0,0-1.51-.57,3.28,3.28,0,0,0-2.41,1,9.57,9.57,0,0,0-1.84,2.74,21.55,21.55,0,0,0-1.33,3.74c-.36,1.37-.65,2.72-.87,4.07s-.38,2.59-.5,3.74-.2,2.07-.25,2.74a30.85,30.85,0,0,0,0,4.1,37.19,37.19,0,0,0,.61,5.33,14.88,14.88,0,0,0,1.59,4.57A3.19,3.19,0,0,0,837.51,419.16Z" transform="translate(-494.32 -325.61)"/></svg>